#!OML:ASF I:\Actors\actors\Patient Classification 2\Patient 1\Session 1\actor1.ASF
:FULLY-SPECIFIED
:DEGREES
540
root -0.669706 18.6975 5.39258 1.10111 -2.66449 -1.39331
lowerback 5.19751 1.7917 0.799698
upperback 0.158149 2.42826 -0.220883
thorax -2.70628 1.19793 -0.855243
lowerneck -10.817 -6.86395 -6.75937
upperneck 32.1188 -9.74346 4.02967
head 13.09 -4.62625 1.30785
rclavicle 2.39784e-015 1.78906e-015
rhumerus -39.1063 -6.26468 -66.8444
rradius 98.0618
rwrist 23.1488
rhand -27.0535 -39.1271
rfingers 7.12502
rthumb -0.471778 -69.1063
lclavicle 2.39784e-015 1.78906e-015
lhumerus -30.2249 -2.33975 80.9111
lradius 90.8336
lwrist -6.81198
lhand -14.9905 -29.8061
lfingers 7.12502
lthumb 11.1739 -0.123626
rfemur 0 0 0
rtibia 0
rfoot 0 0
rtoes 0
lfemur -4.41269 -3.71952 -12.8853
ltibia 21.9944
lfoot -23.0374 16.3825
ltoes -55.1838
541
root -0.67019 18.6963 5.38877 1.04445 -2.51335 -1.35092
lowerback 5.1564 1.81028 0.737958
upperback 0.149456 2.44989 -0.193581
thorax -2.69556 1.2097 -0.792973
lowerneck -11.4158 -6.6708 -6.37591
upperneck 32.2986 -9.51116 3.97346
head 13.2501 -4.46939 1.23691
rclavicle 3.80673e-014 -1.09332e-014
rhumerus -38.8142 -4.73731 -67.8924
rradius 94.6997
rwrist 19.7106
rhand -28.1497 -40.0239
rfingers 7.12502
rthumb -1.53051 -69.9982
lclavicle 3.80673e-014 -1.09332e-014
lhumerus -29.4015 -3.37946 81.3019
lradius 87.524
lwrist -4.35636
lhand -14.9816 -31.8016
lfingers 7.12502
lthumb 11.1825 -2.11961
rfemur 0 0 0
rtibia 0
rfoot 0 0
rtoes 0
lfemur -4.40462 -3.7231 -12.9187
ltibia 21.9969
lfoot -22.9449 16.2962
ltoes -55.2367
542
root -0.669501 18.6937 5.38772 0.898317 -2.47559 -1.35406
lowerback 5.17614 1.83671 0.718511
upperback 0.298142 2.48477 -0.142454
thorax -2.55598 1.22891 -0.729494
lowerneck -12.0685 -6.4654 -5.92235
upperneck 32.0724 -9.26242 3.94154
head 13.2458 -4.29726 1.1665
rclavicle 5.37961e-015 5.96354e-015
rhumerus -38.5676 -3.50004 -68.2848
rradius 93.0388
rwrist 20.9455
rhand -24.8912 -40.7908
rfingers 7.12502
rthumb 1.61666 -70.7645
lclavicle 5.37961e-015 5.96354e-015
lhumerus -28.9579 -4.38681 81.4798
lradius 86.0967
lwrist -5.97821
lhand -15.2195 -32.8086
lfingers 7.12502
lthumb 10.953 -3.11436
rfemur 0 0 0
rtibia 0
rfoot 0 0
rtoes 0
lfemur -4.25857 -3.65879 -12.9111
ltibia 22.0053
lfoot -22.9088 16.2297
ltoes -55.2718
543
root -0.667079 18.691 5.38506 0.758241 -2.50391 -1.3772
lowerback 5.27833 1.85822 0.72977
upperback 0.512243 2.51566 -0.06592
thorax -2.39526 1.24606 -0.658368
lowerneck -12.4586 -6.20812 -5.43867
upperneck 31.1652 -8.92184 3.91838
head 12.8925 -4.09531 1.1207
rclavicle -4.01794e-014 5.56597e-015
rhumerus -38.7215 -2.14422 -68.6309
rradius 93.1431
rwrist 21.026
rhand -24.5417 -41.066
rfingers 7.12502
rthumb 1.9542 -71.0368
lclavicle -4.01794e-014 5.56597e-015
lhumerus -29.0828 -5.33443 81.5659
lradius 86.825
lwrist -8.42684
lhand -15.2259 -32.1029
lfingers 7.12502
lthumb 10.9468 -2.40831
rfemur 0 0 0
rtibia 0
rfoot 0 0
rtoes 0
lfemur -4.11259 -3.57822 -12.8876
ltibia 22.0183
lfoot -22.9332 16.1394
ltoes -55.1926
544
root -0.663058 18.6902 5.38144 0.667105 -2.6119 -1.41493
lowerback 5.46158 1.88038 0.811512
upperback 0.68501 2.55198 -0.000795672
thorax -2.31879 1.26451 -0.642714
lowerneck -12.5191 -5.91506 -5.02961
upperneck 29.9252 -8.54214 3.99953
head 12.3527 -3.88445 1.14376
rclavicle -7.78987e-015 5.1684e-015
rhumerus -39.3381 -1.37949 -68.9417
rradius 94.6686
rwrist 21.1437
rhand -24.9622 -40.7022
rfingers 7.12502
rthumb 1.54812 -70.6764
lclavicle -7.78987e-015 5.1684e-015
lhumerus -29.5619 -5.96998 81.616
lradius 88.8391
lwrist -8.16619
lhand -15.3663 -32.117
lfingers 7.12502
lthumb 10.8115 -2.41524
rfemur 0 0 0
rtibia 0
rfoot 0 0
rtoes 0
lfemur -4.0065 -3.50666 -12.8655
ltibia 22.0357
lfoot -22.9877 16.1067
ltoes -55.0955
545
root -0.660316 18.6924 5.37982 0.692735 -2.70267 -1.43074
lowerback 5.60414 1.88116 0.924783
upperback 0.749755 2.56111 0.0175545
thorax -2.32757 1.26819 -0.691704
lowerneck -12.3408 -5.61511 -4.68794
upperneck 28.6839 -8.16697 4.14331
head 11.7884 -3.68153 1.20453
rclavicle -1.83006e-014 -3.8763e-015
rhumerus -40.1327 -1.15609 -69.2569
rradius 96.516
rwrist 22.6507
rhand -25.8401 -39.2909
rfingers 7.12502
rthumb 0.70021 -69.2695
lclavicle -1.83006e-014 -3.8763e-015
lhumerus -30.2468 -6.2474 81.6385
lradius 91.1355
lwrist -7.52256
lhand -15.5332 -31.9798
lfingers 7.12502
lthumb 10.6505 -2.26973
rfemur 0 0 0
rtibia 0
rfoot 0 0
rtoes 0
lfemur -4.03301 -3.46356 -12.8619
ltibia 22.0638
lfoot -23.0001 16.1233
ltoes -55.0723
546
root -0.660276 18.6977 5.37674 0.909436 -2.56149 -1.40924
lowerback 5.61139 1.79623 0.987385
upperback 0.710803 2.45228 0.0206351
thorax -2.37112 1.21297 -0.716653
lowerneck -12.1613 -5.3155 -4.32962
upperneck 27.6022 -7.77295 4.1742
head 11.295 -3.48073 1.21946
rclavicle 1.05294e-014 2.18663e-015
rhumerus -40.6518 -1.31886 -69.3052
rradius 99.0232
rwrist 21.3039
rhand -26.3575 -39.8527
rfingers 7.12502
rthumb 0.200432 -69.8324
lclavicle 1.05294e-014 2.18663e-015
lhumerus -30.8477 -6.13007 81.6302
lradius 93.4853
lwrist -7.04426
lhand -15.8959 -31.9467
lfingers 7.12502
lthumb 10.3005 -2.21896
rfemur 0 0 0
rtibia 0
rfoot 0 0
rtoes 0
lfemur -4.33722 -3.56516 -12.8699
ltibia 22.0972
lfoot -22.9328 16.1349
ltoes -55.0986
547
root -0.659915 18.7031 5.37569 1.17655 -2.3779 -1.42225
lowerback 5.5327 1.68721 1.04756
upperback 0.637973 2.31188 0.0746987
thorax -2.40454 1.14219 -0.683249
lowerneck -12.0803 -5.02308 -4.01248
upperneck 26.7722 -7.35807 4.08405
head 10.9242 -3.28373 1.19481
rclavicle 3.29486e-014 -5.66536e-015
rhumerus -40.9191 -1.33459 -69.2749
rradius 101.144
rwrist 21.1115
rhand -27.2044 -39.7767
rfingers 7.12502
rthumb -0.617545 -69.7555
lclavicle 3.29486e-014 -5.66536e-015
lhumerus -31.3168 -5.72768 81.6625
lradius 95.7078
lwrist -7.04597
lhand -16.3004 -32.0761
lfingers 7.12502
lthumb 9.91039 -2.32941
rfemur 0 0 0
rtibia 0
rfoot 0 0
rtoes 0
lfemur -4.68951 -3.70173 -12.8391
ltibia 22.1115
lfoot -22.8701 16.184
ltoes -55.1687
